<svg preserveAspectRatio="none" width="100%" height="100%" overflow="visible" style="display: block;" viewBox="0 0 13.3333 13.3333" fill="none" xmlns="http://www.w3.org/2000/svg">
<g id="Frame 9">
<g id="flag_check">
<mask id="mask0_5818_22370" style="mask-type:alpha" maskUnits="userSpaceOnUse" x="0" y="0" width="15" height="15">
<rect id="Bounding box" width="15" height="15" fill="var(--fill-0, #D9D9D9)"/>
</mask>
<g mask="url(#mask0_5818_22370)">
<path id="flag_check_2" d="M2.77777 11.7014V2.25692H6.24999C6.2037 2.43284 6.16897 2.60645 6.14583 2.77775C6.12268 2.94905 6.1111 3.11803 6.1111 3.28469C6.1111 4.40507 6.49999 5.33331 7.27777 6.06942C8.05555 6.80553 8.96296 7.17358 9.99999 7.17358C10.1852 7.17358 10.3704 7.15969 10.5555 7.13192C10.7407 7.10414 10.9259 7.06247 11.1111 7.00692V8.92358H7.22222L6.99999 7.81247H3.88888V11.7014H2.77777Z" fill="var(--fill-0, #1C1B1F)"/>
</g>
</g>
<path id="Subtract" d="M9.58362 0.833171C11.1943 0.833346 12.4996 2.13944 12.4996 3.75016C12.4995 5.36074 11.1942 6.666 9.58362 6.66618C7.9729 6.66618 6.6668 5.36084 6.66663 3.75016C6.66663 2.13933 7.97279 0.833171 9.58362 0.833171ZM9.62952 3.25114L8.44495 2.06559L7.98401 2.52653L9.16858 3.70329L7.98401 4.88883L8.44495 5.34977L9.62952 4.16423L10.8063 5.34977L11.2672 4.88883L10.0826 3.70329L11.2672 2.52653L10.8063 2.06559L9.62952 3.25114Z" fill="var(--fill-0, #1C1B1F)"/>
</g>
</svg>
