<svg preserveAspectRatio="none" width="100%" height="100%" overflow="visible" style="display: block;" viewBox="0 0 13.3333 13.3333" fill="none" xmlns="http://www.w3.org/2000/svg">
<g id="fact_check">
<mask id="mask0_5818_23286" style="mask-type:alpha" maskUnits="userSpaceOnUse" x="0" y="0" width="14" height="14">
<rect id="Bounding box" width="13.3333" height="13.3333" fill="var(--fill-0, #D9D9D9)"/>
</mask>
<g mask="url(#mask0_5818_23286)">
<path id="fact_check_2" d="M2.22222 11.6665C1.91666 11.6665 1.65509 11.5577 1.43749 11.3401C1.2199 11.1225 1.1111 10.8609 1.1111 10.5554V2.77762C1.1111 2.47206 1.2199 2.21049 1.43749 1.99289C1.65509 1.7753 1.91666 1.6665 2.22222 1.6665H11.1111C11.4167 1.6665 11.6782 1.7753 11.8958 1.99289C12.1134 2.21049 12.2222 2.47206 12.2222 2.77762V10.5554C12.2222 10.8609 12.1134 11.1225 11.8958 11.3401C11.6782 11.5577 11.4167 11.6665 11.1111 11.6665H2.22222ZM2.77777 9.44428H5.55555V8.33317H2.77777V9.44428ZM8.08333 8.33317L10.8333 5.58317L10.0417 4.7915L8.08333 6.76373L7.29166 5.97206L6.51388 6.76373L8.08333 8.33317ZM2.77777 7.22206H5.55555V6.11095H2.77777V7.22206ZM2.77777 4.99984H5.55555V3.88873H2.77777V4.99984Z" fill="var(--fill-0, #1C1B1F)"/>
</g>
</g>
</svg>
