<svg preserveAspectRatio="none" width="100%" height="100%" overflow="visible" style="display: block;" viewBox="0 0 13.3333 13.3333" fill="none" xmlns="http://www.w3.org/2000/svg">
<g id="inactive_order">
<mask id="mask0_5818_21914" style="mask-type:alpha" maskUnits="userSpaceOnUse" x="0" y="0" width="14" height="14">
<rect id="Bounding box" width="13.3333" height="13.3333" fill="var(--fill-0, #D9D9D9)"/>
</mask>
<g mask="url(#mask0_5818_21914)">
<path id="inactive_order_2" d="M9.02774 11.1109H9.58329V8.88872H9.02774V11.1109ZM10.4166 11.1109H10.9722V8.88872H10.4166V11.1109ZM3.33329 4.99984H9.99996V3.88873H3.33329V4.99984ZM9.99996 12.7776C9.23144 12.7776 8.57635 12.5068 8.03468 11.9651C7.49301 11.4234 7.22218 10.7684 7.22218 9.99984C7.22218 9.23132 7.49301 8.57623 8.03468 8.03456C8.57635 7.49289 9.23144 7.22206 9.99996 7.22206C10.7685 7.22206 11.4236 7.49289 11.9652 8.03456C12.5069 8.57623 12.7777 9.23132 12.7777 9.99984C12.7777 10.7684 12.5069 11.4234 11.9652 11.9651C11.4236 12.5068 10.7685 12.7776 9.99996 12.7776ZM1.66663 12.2221V2.77761C1.66663 2.47206 1.77542 2.21049 1.99301 1.99289C2.21061 1.7753 2.47218 1.6665 2.77774 1.6665H10.5555C10.8611 1.6665 11.1226 1.7753 11.3402 1.99289C11.5578 2.21049 11.6666 2.47206 11.6666 2.77761V6.48595C11.4074 6.35632 11.1365 6.26141 10.8541 6.20123C10.5717 6.14104 10.287 6.11095 9.99996 6.11095H3.33329V7.22206H7.27774C7.12033 7.37947 6.9745 7.55076 6.84024 7.73595C6.70598 7.92113 6.58792 8.12021 6.48607 8.33317H3.33329V9.44428H6.15274C6.13422 9.53687 6.12264 9.62715 6.11801 9.71511C6.11338 9.80308 6.11107 9.89798 6.11107 9.99984C6.11107 10.3887 6.16431 10.7614 6.27079 11.1179C6.37727 11.4744 6.537 11.8147 6.74996 12.1387L6.66663 12.2221L5.83329 11.3887L4.99996 12.2221L4.16663 11.3887L3.33329 12.2221L2.49996 11.3887L1.66663 12.2221Z" fill="var(--fill-0, #1C1B1F)"/>
</g>
</g>
</svg>
