<svg preserveAspectRatio="none" width="100%" height="100%" overflow="visible" style="display: block;" viewBox="0 0 13.3333 13.3333" fill="none" xmlns="http://www.w3.org/2000/svg">
<g id="arming_countdown">
<mask id="mask0_5818_24652" style="mask-type:alpha" maskUnits="userSpaceOnUse" x="0" y="0" width="14" height="14">
<rect id="Bounding box" width="13.3333" height="13.3333" fill="var(--fill-0, #D9D9D9)"/>
</mask>
<g mask="url(#mask0_5818_24652)">
<path id="arming_countdown_2" d="M6.66659 8.88886C7.36104 8.88886 7.95131 8.6458 8.43743 8.15969C8.92354 7.67358 9.16659 7.08331 9.16659 6.38886C9.16659 5.69442 8.92354 5.10414 8.43743 4.61803C7.95131 4.13192 7.36104 3.88886 6.66659 3.88886V4.72219C7.12956 4.72219 7.52307 4.88423 7.84715 5.20831C8.17122 5.53238 8.33326 5.9259 8.33326 6.38886C8.33326 6.85182 8.17122 7.24534 7.84715 7.56942C7.52307 7.89349 7.12956 8.05553 6.66659 8.05553C6.36104 8.05553 6.07631 7.97682 5.81243 7.81942C5.54854 7.66201 5.34252 7.44905 5.19437 7.18053L4.47215 7.58331C4.69437 7.99071 4.99993 8.31016 5.38881 8.54164C5.7777 8.77312 6.20363 8.88886 6.66659 8.88886ZM4.58326 6.86108C4.70363 6.86108 4.80317 6.82173 4.88187 6.74303C4.96057 6.66432 4.99993 6.56479 4.99993 6.44442C4.99993 6.32405 4.96057 6.22451 4.88187 6.14581C4.80317 6.0671 4.70363 6.02775 4.58326 6.02775C4.46289 6.02775 4.36335 6.0671 4.28465 6.14581C4.20594 6.22451 4.16659 6.32405 4.16659 6.44442C4.16659 6.56479 4.20594 6.66432 4.28465 6.74303C4.36335 6.82173 4.46289 6.86108 4.58326 6.86108ZM4.88881 5.69442C5.00918 5.69442 5.10872 5.65506 5.18743 5.57636C5.26613 5.49766 5.30548 5.39812 5.30548 5.27775C5.30548 5.15738 5.26613 5.05784 5.18743 4.97914C5.10872 4.90044 5.00918 4.86108 4.88881 4.86108C4.76844 4.86108 4.66891 4.90044 4.5902 4.97914C4.5115 5.05784 4.47215 5.15738 4.47215 5.27775C4.47215 5.39812 4.5115 5.49766 4.5902 5.57636C4.66891 5.65506 4.76844 5.69442 4.88881 5.69442ZM5.69437 4.93053C5.81474 4.93053 5.91428 4.89118 5.99298 4.81247C6.07168 4.73377 6.11104 4.63423 6.11104 4.51386C6.11104 4.39349 6.07168 4.29395 5.99298 4.21525C5.91428 4.13655 5.81474 4.09719 5.69437 4.09719C5.574 4.09719 5.47446 4.13655 5.39576 4.21525C5.31706 4.29395 5.2777 4.39349 5.2777 4.51386C5.2777 4.63423 5.31706 4.73377 5.39576 4.81247C5.47446 4.89118 5.574 4.93053 5.69437 4.93053ZM6.66659 12.2222C5.37956 11.8981 4.31706 11.1597 3.47909 10.0069C2.64113 8.85414 2.22215 7.57405 2.22215 6.16664V2.77775L6.66659 1.11108L11.111 2.77775V6.16664C11.111 7.57405 10.6921 8.85414 9.85409 10.0069C9.01613 11.1597 7.95363 11.8981 6.66659 12.2222Z" fill="var(--fill-0, #1C1B1F)"/>
</g>
</g>
</svg>
